<svg xmlns="http://www.w3.org/2000/svg" width="1039" height="477" viewBox="0 0 1039 477" version="1.1"><path d="M 171 181.477 C 162.299 183.489, 158.595 185.544, 153.549 191.157 C 147.712 197.649, 145.483 201.936, 144.125 209.282 C 142.677 217.115, 144.209 225.001, 148.571 232.167 L 152.020 237.834 149.005 242.686 C 147.325 245.387, 145.343 250.634, 144.532 254.526 C 143.274 260.558, 143.265 262.428, 144.467 268.172 C 146.221 276.557, 148.043 280.073, 153.247 285.124 C 160.948 292.597, 165.196 294.397, 176.176 294.838 C 185.423 295.209, 186.230 295.074, 192.207 292.139 C 195.668 290.440, 199.267 288.491, 200.205 287.808 C 201.622 286.777, 202.298 286.931, 204.205 288.721 C 208.877 293.107, 214.881 294.955, 224.500 294.968 C 235.096 294.983, 241.068 292.744, 248.356 286.026 C 259.732 275.540, 262.117 255.804, 253.547 243.069 L 250.292 238.232 253.603 232.980 C 263.103 217.913, 258.987 196.966, 244.577 187.054 C 232.607 178.818, 215.290 178.820, 204.847 187.057 C 201.615 189.607, 201.046 189.761, 199.914 188.396 C 197.853 185.913, 190.965 182.774, 184.500 181.372 C 177.486 179.850, 178.052 179.846, 171 181.477 M 699.225 196.004 C 694.946 198.613, 693.504 202.351, 694.930 207.140 C 698.441 218.928, 719 216.446, 719 204.233 C 719 201.519, 718.201 199.982, 715.429 197.368 C 712.420 194.531, 711.120 194.001, 707.179 194.004 C 704.268 194.006, 701.262 194.762, 699.225 196.004 M 286.467 201.225 C 286.195 201.934, 286.091 217.362, 286.236 235.508 L 286.500 268.500 297.500 268.500 L 308.500 268.500 308.802 253.500 L 309.104 238.500 313.802 247.500 L 318.500 256.500 323.328 256.808 C 326.162 256.989, 328.778 256.600, 329.662 255.866 C 330.491 255.178, 332.767 251.441, 334.721 247.561 C 338.074 240.904, 338.326 240.647, 339.211 243.003 C 339.727 244.377, 340.016 250.225, 339.855 256 C 339.693 261.775, 339.911 267.063, 340.339 267.750 C 341.462 269.552, 360.353 269.485, 361.856 267.673 C 362.620 266.754, 362.887 256.236, 362.729 233.423 L 362.500 200.500 351 200.500 L 339.500 200.500 332.366 214.461 C 328.443 222.140, 324.843 228.541, 324.366 228.686 C 323.890 228.831, 320.290 222.548, 316.367 214.725 L 309.233 200.500 298.098 200.217 C 289.716 200.004, 286.840 200.253, 286.467 201.225 M 505 201.040 C 502.525 201.482, 498.700 202.236, 496.500 202.715 L 492.500 203.587 491.957 234.543 C 491.658 251.569, 491.786 266.288, 492.242 267.250 C 492.944 268.733, 494.499 269, 502.453 269 C 512.676 269, 515 268.517, 515 266.393 C 515 264.566, 515.220 264.607, 519.693 267.250 C 525.424 270.637, 534.778 270.334, 541.757 266.535 C 548.010 263.132, 551.249 259.173, 553.560 252.107 C 558.119 238.170, 550.526 222.385, 537.580 218.881 C 531.865 217.335, 522.743 218.334, 519.139 220.901 C 517.518 222.056, 515.898 223, 515.539 223 C 515.180 223, 514.939 218.613, 515.005 213.250 C 515.178 199.094, 515.365 199.984, 512.250 200.118 C 510.738 200.182, 507.475 200.597, 505 201.040 M 640 201.017 C 637.525 201.472, 633.700 202.237, 631.500 202.717 L 627.500 203.590 627.500 236.045 L 627.500 268.500 637.854 268.786 C 648.313 269.075, 651.669 268.186, 650.604 265.409 C 650.335 264.711, 651.671 265.194, 653.571 266.484 C 658.132 269.578, 663.677 270.417, 670.382 269.025 C 677.298 267.589, 683.075 263.431, 686.683 257.292 C 689.209 252.996, 689.500 251.569, 689.500 243.500 C 689.500 235.500, 689.197 233.984, 686.771 229.858 C 680.221 218.717, 662.877 214.277, 653.591 221.365 L 650.500 223.724 650.500 212.112 L 650.500 200.500 647.500 200.345 C 645.850 200.260, 642.475 200.563, 640 201.017 M 188 206.615 C 184.170 210.308, 182.976 210.626, 179.974 208.752 C 178.345 207.734, 177.489 207.780, 175.342 209.002 C 171.750 211.046, 170.852 213.984, 172.671 217.740 C 174.470 221.456, 176.684 222.173, 180.893 220.403 C 183.943 219.121, 184.234 219.215, 188.219 222.784 C 191.163 225.421, 192.146 225.919, 191.602 224.500 C 190.189 220.813, 189.814 212.542, 190.856 208.027 C 191.423 205.567, 191.800 203.483, 191.694 203.397 C 191.587 203.310, 189.925 204.758, 188 206.615 M 220.079 210.141 C 218.054 212.028, 217.859 212.881, 218.445 217.293 C 219.084 222.114, 218.966 222.451, 215.311 226.193 L 211.513 230.083 215.882 228.542 C 221.428 226.585, 228.044 226.574, 232.686 228.513 C 234.677 229.345, 236.455 229.878, 236.636 229.697 C 236.818 229.516, 235.219 227.549, 233.084 225.327 C 229.294 221.383, 229.227 221.189, 230.300 217.170 C 231.303 213.413, 231.192 212.833, 229.025 210.527 C 226.122 207.436, 223.121 207.307, 220.079 210.141 M 384.703 219.383 C 378.578 221.663, 373.209 225.714, 370.287 230.260 C 368.060 233.725, 367.491 235.921, 367.174 242.271 C 366.833 249.105, 367.106 250.696, 369.434 255.454 C 372.340 261.395, 378.197 266.073, 385.441 268.240 C 392.218 270.267, 406.694 269.727, 412.250 267.239 C 417.453 264.910, 417.544 264.621, 415.629 256.500 C 414.578 252.042, 414.182 251.528, 411.975 251.754 C 397.276 253.265, 396.031 253.250, 393.420 251.539 C 391.971 250.590, 391.172 249.470, 391.643 249.050 C 392.114 248.630, 397.900 247.718, 404.500 247.023 C 419.893 245.402, 420.208 245.149, 417.978 236.177 C 414.775 223.287, 409.429 218.838, 396.500 218.302 C 391.298 218.086, 387.172 218.464, 384.703 219.383 M 436.748 219.366 C 431.153 221.453, 426.249 225.600, 423.807 230.308 C 420.739 236.223, 420.706 246.907, 423.737 252.638 C 428.196 261.067, 440.156 266.916, 450 265.480 C 454.651 264.802, 460.489 261.836, 461.350 259.712 C 461.621 259.045, 461.878 259.535, 461.921 260.800 C 462.023 263.782, 459.523 268.585, 457.455 269.379 C 456.565 269.720, 452.975 270, 449.477 270 C 445.916 270, 442.818 270.486, 442.435 271.104 C 441.012 273.408, 440.701 284.697, 442.039 285.524 C 444.337 286.944, 457.397 287.267, 463.268 286.048 C 471.689 284.300, 477.853 279.706, 481.500 272.460 L 484.500 266.500 484.500 242.500 L 484.500 218.500 473.500 218.500 L 462.500 218.500 462.184 221.250 L 461.867 224 458.388 221.347 C 455.530 219.167, 453.625 218.629, 447.705 218.330 C 443.130 218.099, 439.131 218.477, 436.748 219.366 M 574.500 218.803 C 567.317 221.332, 561.104 227.245, 558.886 233.664 C 558.157 235.774, 557.579 240.425, 557.602 244 C 557.687 257.587, 566.365 267.855, 579.257 269.622 C 584.105 270.286, 591.638 268.583, 594.279 266.226 C 595.918 264.763, 596.178 264.810, 597.586 266.819 C 598.979 268.809, 599.975 269, 608.934 269 C 615.608 269, 619.065 268.599, 619.722 267.750 C 620.936 266.182, 621.380 220.977, 620.199 219.214 C 619.565 218.267, 616.464 218.004, 608.419 218.214 C 597.957 218.488, 597.487 218.594, 597.180 220.750 C 596.786 223.525, 596.631 223.526, 592.917 220.780 C 590.628 219.088, 588.319 218.506, 583.207 218.329 C 579.518 218.202, 575.600 218.415, 574.500 218.803 M 695.667 218.667 C 695.300 219.033, 695 227.528, 695 237.545 C 695 257.743, 695.675 260.866, 701.009 265.354 C 706.842 270.262, 716.022 271.107, 724.596 267.524 L 728.233 266.005 727.513 259.252 C 726.745 252.060, 725.843 250.750, 722.273 251.646 C 718.770 252.526, 717.804 248.390, 718.037 233.500 C 718.149 226.350, 718.187 219.938, 718.121 219.250 C 718.032 218.334, 715.102 218, 707.167 218 C 701.208 218, 696.033 218.300, 695.667 218.667 M 729.667 218.667 C 728.530 219.803, 728.934 244.850, 730.169 249.807 C 731.831 256.483, 735.536 261.597, 740.424 263.963 C 747.484 267.381, 757.605 266.252, 762.337 261.520 C 764.614 259.243, 765.360 260.083, 764.508 263.962 C 763.503 268.540, 760.189 270.237, 752.479 270.121 C 745.106 270.010, 744.851 270.272, 743.679 279.154 C 742.877 285.233, 744.085 286.177, 753.432 286.777 C 766.239 287.599, 776.739 283.672, 782.256 275.998 C 787.082 269.285, 788.073 262.706, 787.771 239.395 L 787.500 218.500 776 218.500 L 764.500 218.500 763.973 231.500 C 763.405 245.502, 762.847 247.751, 759.648 248.934 C 753.671 251.146, 751.417 245.605, 752.487 231.333 C 753.521 217.535, 753.919 218, 741.099 218 C 735.178 218, 730.033 218.300, 729.667 218.667 M 807.836 219.344 C 802.835 221.202, 798.810 224.645, 795.381 229.999 C 792.785 234.052, 792.500 235.338, 792.500 242.999 C 792.500 249.932, 792.939 252.392, 794.880 256.335 C 800.769 268.296, 817.968 273.583, 828.263 266.596 L 831.653 264.296 832.577 266.398 C 833.412 268.300, 834.445 268.527, 843.412 268.788 C 848.863 268.947, 853.734 268.666, 854.235 268.165 C 855.390 267.010, 855.344 219.944, 854.186 218.786 C 853.713 218.313, 848.640 218.055, 842.913 218.213 C 832.976 218.487, 832.485 218.603, 832.180 220.750 C 831.785 223.532, 831.557 223.533, 827.677 220.770 C 823.826 218.028, 813.399 217.279, 807.836 219.344 M 390.425 234.474 C 389.492 235.898, 388.991 237.324, 389.311 237.644 C 389.630 237.964, 392.190 237.674, 394.998 237.001 C 398.824 236.083, 400.026 235.365, 399.793 234.138 C 399.587 233.046, 398.256 232.398, 395.802 232.193 C 392.764 231.940, 391.824 232.339, 390.425 234.474 M 447.750 235.982 C 443.990 238.939, 443.937 244.019, 447.635 246.927 C 453.018 251.162, 461 247.969, 461 241.582 C 461 235.278, 452.963 231.881, 447.750 235.982 M 519.750 235.080 C 514.758 237.988, 513.940 246.178, 518.190 250.702 C 522.656 255.456, 530.160 252.451, 531.582 245.340 C 533.001 238.246, 525.492 231.735, 519.750 235.080 M 584.973 235.692 C 581.459 238.097, 581.033 238.969, 581.015 243.795 C 580.983 252.994, 591.510 256.715, 595.537 248.928 C 597.892 244.374, 597.389 240.235, 594.077 236.923 C 590.738 233.584, 588.496 233.281, 584.973 235.692 M 656.035 234.713 C 650.970 236.776, 649.305 245.576, 653.073 250.365 C 657.634 256.164, 667 251.534, 667 243.479 C 667 237.847, 660.702 232.812, 656.035 234.713 M 819.299 235.503 C 816.657 237.354, 814.617 243.182, 815.543 246.234 C 817.174 251.612, 823.736 254.889, 827.558 252.235 C 832.635 248.709, 833.377 241.224, 829.077 236.923 C 825.846 233.692, 822.565 233.216, 819.299 235.503 M 169.426 250.847 C 173.243 254.831, 173.320 255.050, 172.183 258.723 C 171.171 261.988, 171.262 262.839, 172.855 265 C 177.951 271.914, 186.990 265.455, 182.904 257.820 C 181.960 256.056, 182.412 255.144, 186.154 251.256 L 190.500 246.739 187 247.573 C 182.710 248.595, 172.565 248.566, 168.500 247.521 L 165.500 246.749 169.426 250.847 M 210.822 250.512 C 210.460 250.874, 210.634 252.521, 211.210 254.172 C 212.271 257.217, 211.821 268.842, 210.499 272.500 C 210.073 273.679, 211.482 272.718, 213.932 270.160 C 217.006 266.949, 218.531 266.019, 219.793 266.587 C 220.732 267.009, 223.052 267.387, 224.950 267.427 C 229.399 267.521, 231.989 263.713, 230.450 259.339 C 229.068 255.410, 225.891 254.040, 221.113 255.315 C 217.482 256.284, 217.119 256.165, 214.378 253.097 C 212.784 251.313, 211.184 250.150, 210.822 250.512" stroke="none" fill="#010001" fill-rule="evenodd"/></svg>